<svg width="32" height="32" viewBox="0 0 32 32" fill="none" xmlns="http://www.w3.org/2000/svg">
<path d="M20 14.6667H17.3333V9.33329C17.3333 8.97967 17.1928 8.64053 16.9428 8.39048C16.6927 8.14044 16.3536 7.99996 16 7.99996C15.6463 7.99996 15.3072 8.14044 15.0572 8.39048C14.8071 8.64053 14.6666 8.97967 14.6666 9.33329V16C14.6666 16.3536 14.8071 16.6928 15.0572 16.9428C15.3072 17.1929 15.6463 17.3333 16 17.3333H20C20.3536 17.3333 20.6927 17.1929 20.9428 16.9428C21.1928 16.6928 21.3333 16.3536 21.3333 16C21.3333 15.6464 21.1928 15.3072 20.9428 15.0572C20.6927 14.8071 20.3536 14.6667 20 14.6667ZM16 2.66663C13.3629 2.66663 10.785 3.44861 8.59236 4.9137C6.39971 6.37878 4.69074 8.46117 3.68157 10.8976C2.6724 13.3339 2.40836 16.0148 2.92283 18.6012C3.4373 21.1876 4.70717 23.5634 6.57188 25.4281C8.43658 27.2928 10.8123 28.5627 13.3988 29.0771C15.9852 29.5916 18.6661 29.3276 21.1024 28.3184C23.5388 27.3092 25.6211 25.6003 27.0862 23.4076C28.5513 21.2149 29.3333 18.6371 29.3333 16C29.3333 14.249 28.9884 12.5152 28.3184 10.8976C27.6483 9.27984 26.6662 7.80998 25.4281 6.57187C24.1899 5.33376 22.7201 4.35163 21.1024 3.68157C19.4847 3.0115 17.7509 2.66663 16 2.66663ZM16 26.6667C13.8903 26.6667 11.828 26.0411 10.0739 24.869C8.31976 23.6969 6.95259 22.031 6.14525 20.082C5.33792 18.1329 5.12668 15.9882 5.53826 13.919C5.94983 11.8499 6.96573 9.94925 8.45749 8.45749C9.94925 6.96573 11.8499 5.94983 13.919 5.53825C15.9881 5.12668 18.1328 5.33791 20.0819 6.14525C22.031 6.95258 23.6969 8.31975 24.869 10.0739C26.041 11.828 26.6666 13.8903 26.6666 16C26.6666 18.829 25.5428 21.5421 23.5424 23.5425C21.5421 25.5429 18.8289 26.6667 16 26.6667Z" fill="#333333"/>
</svg>
