<svg width="387" height="84" viewBox="0 0 387 84" fill="none" xmlns="http://www.w3.org/2000/svg">
<g clip-path="url(#clip0_8_97)">
<path d="M74.3044 27.652V37.4346C74.3044 40.6693 71.494 43.3042 68.0435 43.3042H45.1704C43.9739 43.3042 43 44.2172 43 45.3389V48.5215C43 49.6041 42.0679 50.478 40.913 50.478C39.7582 50.478 38.826 49.6042 38.826 48.5215V45.3389C38.826 43.6042 39.633 42.0259 40.913 40.9432C42.026 39.9779 43.5287 39.3911 45.1704 39.3911H68.0434C69.1982 39.3911 70.1304 38.5172 70.1304 37.4345V27.6519C70.1304 26.5693 69.1983 25.6954 68.0434 25.6954H63.8695C62.7148 25.6954 61.7826 24.8215 61.7826 23.7388C61.7826 22.6561 62.7147 21.7822 63.8695 21.7822H68.0434C71.4939 21.7825 74.3044 24.4173 74.3044 27.652Z" fill="#BFC5CC"/>
<path d="M74.3043 27.6522V37.4347C74.3043 40.6695 71.494 43.3043 68.0435 43.3043H45.1703C43.9738 43.3043 43 44.2173 43 45.339V48.5216C43 49.6042 42.0678 50.4782 40.913 50.4782V40.9434C42.026 39.9782 43.5286 39.3913 45.1703 39.3913H68.0433C69.1981 39.3913 70.1303 38.5174 70.1303 37.4347V27.6522C70.1303 26.5696 69.1982 25.6956 68.0433 25.6956H63.8695C62.7147 25.6956 61.7825 24.8217 61.7825 23.739C61.7825 22.6563 62.7146 21.7825 63.8695 21.7825H68.0433C71.4938 21.7826 74.3043 24.4174 74.3043 27.6522Z" fill="#AFB9BF"/>
<path d="M49.2609 46.5654H32.5653V58.9567H49.2609V46.5654Z" fill="#95673F"/>
<path d="M49.2608 46.5654H40.913V58.9567H49.2608V46.5654Z" fill="#875334"/>
<path d="M17.9564 25.6958H13.7826C12.6304 25.6958 11.6956 24.8201 11.6956 23.7393C11.6956 22.6585 12.6304 21.7827 13.7826 21.7827H17.9564C19.1086 21.7827 20.0434 22.6585 20.0434 23.7393C20.0434 24.8201 19.1086 25.6958 17.9564 25.6958Z" fill="#BFC5CC"/>
<path d="M49.2609 50.4783H32.5653C31.4131 50.4783 30.4783 49.6026 30.4783 48.5217C30.4783 47.4409 31.4131 46.5652 32.5653 46.5652H49.2609C50.413 46.5652 51.3479 47.4409 51.3479 48.5217C51.3479 49.6026 50.413 50.4783 49.2609 50.4783Z" fill="#C9D0D7"/>
<path d="M49.2608 46.5654H40.913V50.4784H49.2608C50.413 50.4784 51.3478 49.6027 51.3478 48.5219C51.3478 47.4411 50.413 46.5654 49.2608 46.5654Z" fill="#B8C2C9"/>
<path d="M32.5653 55.0435V64.1739C32.5653 68.4894 36.3098 72 40.9132 72C45.5166 72 49.2611 68.4896 49.2611 64.1739V55.0435H32.5653Z" fill="#6E6057"/>
<path d="M40.913 72C45.5162 72 49.2608 68.4896 49.2608 64.1739V55.0435H40.913V72Z" fill="#615349"/>
<path d="M59.96 12H21.8661C18.5549 12 15.8696 14.5174 15.8696 17.6217V25.0564C17.9566 25.7086 28.1549 30.8217 40.9131 25.8521C41.1914 25.7347 41.4835 25.6174 41.7619 25.5C53.0593 20.7391 61.5323 25.2913 65.9566 26.4653C65.9566 21.5479 65.9566 22.6044 65.9566 17.6218C65.9565 14.5174 63.2713 12 59.96 12Z" fill="#9DCA40"/>
<path d="M65.9565 17.6217C65.9565 22.6043 65.9565 21.5479 65.9565 26.4652C61.5321 25.2913 53.0591 20.739 41.7617 25.4998C41.4835 25.6172 41.1913 25.7347 40.913 25.8519V12H59.96C63.2712 12 65.9565 14.5174 65.9565 17.6217Z" fill="#8EB043"/>
<path d="M40.913 21.639C40.6348 21.7433 40.3565 21.8607 40.0643 21.9781C28.419 26.8824 19.5564 21.926 15.8695 20.9477V29.8564C15.8695 32.9607 18.5548 35.4781 21.866 35.4781H59.96C63.2713 35.4781 65.9565 32.9607 65.9565 29.8564C65.9565 25.239 65.9565 26.8434 65.9565 22.4086C63.4104 21.6129 53.2818 16.8129 40.913 21.639Z" fill="#FFD9B3"/>
<path d="M65.9565 22.4086C65.9565 26.8433 65.9565 25.239 65.9565 29.8564C65.9565 32.9607 63.2712 35.4781 59.96 35.4781H40.913V21.639C53.2817 16.8129 63.4103 21.6129 65.9565 22.4086Z" fill="#FFC080"/>
</g>
<path d="M112.391 60V45.1406L101.562 25.4531H106.344L110.844 34.0781L114.406 40.9688H114.594L118.156 34.0781L122.656 25.4531H127.438L116.609 45.1406V60H112.391ZM141.5 60.375C139.312 60.375 137.391 59.8359 135.734 58.7578C134.094 57.6797 132.812 56.1797 131.891 54.2578C130.984 52.3359 130.531 50.1094 130.531 47.5781C130.531 45.0469 130.984 42.8203 131.891 40.8984C132.812 38.9609 134.094 37.4531 135.734 36.375C137.391 35.2812 139.312 34.7344 141.5 34.7344C143.688 34.7344 145.602 35.2812 147.242 36.375C148.898 37.4531 150.18 38.9609 151.086 40.8984C152.008 42.8203 152.469 45.0469 152.469 47.5781C152.469 50.1094 152.008 52.3359 151.086 54.2578C150.18 56.1797 148.898 57.6797 147.242 58.7578C145.602 59.8359 143.688 60.375 141.5 60.375ZM141.5 56.625C142.938 56.625 144.172 56.2578 145.203 55.5234C146.25 54.7734 147.047 53.7266 147.594 52.3828C148.156 51.0234 148.438 49.4219 148.438 47.5781C148.438 45.7344 148.156 44.1328 147.594 42.7734C147.047 41.4141 146.25 40.3594 145.203 39.6094C144.172 38.8594 142.938 38.4844 141.5 38.4844C140.062 38.4844 138.82 38.8594 137.773 39.6094C136.742 40.3594 135.945 41.4141 135.383 42.7734C134.836 44.1328 134.562 45.7344 134.562 47.5781C134.562 49.4219 134.836 51.0234 135.383 52.3828C135.945 53.7266 136.742 54.7734 137.773 55.5234C138.82 56.2578 140.062 56.625 141.5 56.625ZM167.188 60.375C165.422 60.375 163.883 59.9922 162.57 59.2266C161.273 58.4609 160.266 57.3906 159.547 56.0156C158.828 54.625 158.469 53 158.469 51.1406V35.1562H162.5V50.9531C162.5 52.6562 163 54.0234 164 55.0547C165 56.0703 166.328 56.5938 167.984 56.625C169.172 56.6406 170.211 56.4141 171.102 55.9453C171.992 55.4766 172.688 54.8203 173.188 53.9766C173.688 53.1172 173.938 52.1094 173.938 50.9531V35.1562H177.969V53.3438C177.969 54.0156 178.211 54.6562 178.695 55.2656C179.18 55.875 179.844 56.3594 180.688 56.7188L179.188 60.375C177.922 59.8125 176.828 59.1172 175.906 58.2891C175 57.4453 174.547 56.6406 174.547 55.875L176.141 56.7188H173.469L175.531 55.3125C174.734 56.9219 173.57 58.1719 172.039 59.0625C170.523 59.9375 168.906 60.375 167.188 60.375ZM187.25 60V35.1562H191.281V38.9062H192.078L190.672 40.875C190.953 39.7188 191.477 38.6797 192.242 37.7578C193.008 36.8359 193.922 36.1094 194.984 35.5781C196.062 35.0469 197.203 34.7812 198.406 34.7812C199.703 34.7812 200.883 34.9922 201.945 35.4141C203.008 35.8359 203.938 36.4688 204.734 37.3125C205.531 38.1562 206.172 39.2188 206.656 40.5L202.906 42.0469C202.438 40.9375 201.734 40.0938 200.797 39.5156C199.859 38.9219 198.734 38.625 197.422 38.625C196.359 38.625 195.359 38.9375 194.422 39.5625C193.484 40.1719 192.727 41.0234 192.148 42.1172C191.57 43.2109 191.281 44.4688 191.281 45.8906V60H187.25ZM242.75 60V56.1562H250.438C252.219 56.1562 253.656 55.6328 254.75 54.5859C255.844 53.5391 256.391 52.0781 256.391 50.2031C256.391 48.3281 255.812 46.875 254.656 45.8438C253.5 44.8125 251.969 44.2969 250.062 44.2969H242.281V40.5469H248.797C249.844 40.5469 250.773 40.2969 251.586 39.7969C252.398 39.2969 253.031 38.6094 253.484 37.7344C253.953 36.8594 254.188 35.8594 254.188 34.7344C254.188 32.9531 253.664 31.6016 252.617 30.6797C251.586 29.7578 250.234 29.2969 248.562 29.2969H242.281V25.4531H248.422C250.422 25.4531 252.156 25.8281 253.625 26.5781C255.109 27.3125 256.25 28.3359 257.047 29.6484C257.859 30.9609 258.266 32.4688 258.266 34.1719C258.266 35.4531 258.039 36.6562 257.586 37.7812C257.133 38.9062 256.531 39.875 255.781 40.6875C255.031 41.5 254.203 42.0781 253.297 42.4219L253.344 41.3906C254.812 41.7656 256.086 42.3672 257.164 43.1953C258.242 44.0234 259.078 45.0547 259.672 46.2891C260.266 47.5078 260.562 48.9062 260.562 50.4844C260.562 52.3438 260.133 53.9922 259.273 55.4297C258.43 56.8516 257.242 57.9688 255.711 58.7812C254.195 59.5938 252.422 60 250.391 60H242.75ZM239 60V25.4531H243.125V60H239ZM268.25 60V35.1562H272.281V38.9062H273.078L271.672 40.875C271.953 39.7188 272.477 38.6797 273.242 37.7578C274.008 36.8359 274.922 36.1094 275.984 35.5781C277.062 35.0469 278.203 34.7812 279.406 34.7812C280.703 34.7812 281.883 34.9922 282.945 35.4141C284.008 35.8359 284.938 36.4688 285.734 37.3125C286.531 38.1562 287.172 39.2188 287.656 40.5L283.906 42.0469C283.438 40.9375 282.734 40.0938 281.797 39.5156C280.859 38.9219 279.734 38.625 278.422 38.625C277.359 38.625 276.359 38.9375 275.422 39.5625C274.484 40.1719 273.727 41.0234 273.148 42.1172C272.57 43.2109 272.281 44.4688 272.281 45.8906V60H268.25ZM301.156 60.375C299.625 60.375 298.242 60.0781 297.008 59.4844C295.773 58.8906 294.797 58.0469 294.078 56.9531C293.359 55.8438 293 54.5156 293 52.9688C293 51.4688 293.406 50.1094 294.219 48.8906C295.031 47.6719 296.273 46.7031 297.945 45.9844C299.617 45.2656 301.75 44.9062 304.344 44.9062H309.5V48.1406H304.625C303.406 48.1406 302.203 48.2891 301.016 48.5859C299.844 48.8828 298.867 49.3828 298.086 50.0859C297.32 50.7891 296.938 51.75 296.938 52.9688C296.938 53.7969 297.148 54.5078 297.57 55.1016C297.992 55.6797 298.555 56.125 299.258 56.4375C299.977 56.75 300.766 56.9062 301.625 56.9062C302.656 56.9062 303.719 56.6797 304.812 56.2266C305.922 55.7578 306.852 55.0859 307.602 54.2109C308.367 53.3203 308.75 52.2344 308.75 50.9531V48.375L308.656 46.9219V44.1562C308.656 43.75 308.625 43.2344 308.562 42.6094C308.5 41.9688 308.312 41.3359 308 40.7109C307.703 40.0859 307.195 39.5625 306.477 39.1406C305.758 38.7031 304.75 38.4844 303.453 38.4844C302.688 38.4844 301.859 38.5859 300.969 38.7891C300.078 38.9766 299.211 39.2422 298.367 39.5859C297.523 39.9297 296.781 40.3281 296.141 40.7812L294.641 37.1719C295.469 36.6875 296.391 36.2656 297.406 35.9062C298.438 35.5312 299.5 35.2422 300.594 35.0391C301.703 34.8359 302.781 34.7344 303.828 34.7344C306.078 34.7344 307.828 35.1719 309.078 36.0469C310.344 36.9219 311.227 38.0703 311.727 39.4922C312.242 40.8984 312.5 42.4219 312.5 44.0625V52.7812C312.5 53.8281 312.602 54.6562 312.805 55.2656C313.023 55.875 313.422 56.2969 314 56.5312L314.469 56.7188L312.969 60.375L312.312 60.0938C311.438 59.7188 310.688 59.1641 310.062 58.4297C309.438 57.6953 309.125 56.9688 309.125 56.25L309.922 56.5312H308.375L309.406 55.875C308.797 57.1094 307.758 58.1719 306.289 59.0625C304.836 59.9375 303.125 60.375 301.156 60.375ZM320.656 60V35.1562H324.641V38.2031H325.578L323.938 39.9375C324.438 38.4375 325.422 37.2031 326.891 36.2344C328.375 35.2656 330.109 34.7812 332.094 34.7812C334.656 34.7812 336.688 35.625 338.188 37.3125C339.688 39 340.438 41.25 340.438 44.0625V60H336.406V44.9062C336.406 42.9844 335.898 41.4453 334.883 40.2891C333.883 39.1172 332.5 38.5312 330.734 38.5312C329.562 38.5312 328.523 38.7969 327.617 39.3281C326.711 39.8438 325.992 40.5781 325.461 41.5312C324.945 42.4844 324.688 43.6094 324.688 44.9062V60H320.656ZM367.625 60.375C366.453 59.7188 365.539 58.9453 364.883 58.0547C364.242 57.1484 363.906 56.2656 363.875 55.4062L364.625 55.9688H362.797L363.828 53.2031V40.6875L362.797 38.2031H363.312V23.9062H367.344V53.1094C367.344 53.9062 367.508 54.6406 367.836 55.3125C368.164 55.9688 368.594 56.4375 369.125 56.7188L367.625 60.375ZM356.281 60.375C354.281 60.375 352.531 59.8516 351.031 58.8047C349.547 57.7422 348.391 56.25 347.562 54.3281C346.75 52.4062 346.344 50.1406 346.344 47.5312C346.344 44.9531 346.75 42.7031 347.562 40.7812C348.391 38.8594 349.547 37.375 351.031 36.3281C352.531 35.2656 354.281 34.7344 356.281 34.7344C358.219 34.7344 359.906 35.2656 361.344 36.3281C362.797 37.3906 363.922 38.8828 364.719 40.8047C365.531 42.7266 365.938 44.9688 365.938 47.5312C365.938 50.1094 365.531 52.3594 364.719 54.2812C363.922 56.2031 362.797 57.7031 361.344 58.7812C359.906 59.8438 358.219 60.375 356.281 60.375ZM357.031 56.7188C358.359 56.7188 359.516 56.3359 360.5 55.5703C361.5 54.8047 362.273 53.7344 362.82 52.3594C363.367 50.9844 363.641 49.375 363.641 47.5312C363.641 45.6719 363.367 44.0625 362.82 42.7031C362.273 41.3281 361.508 40.2656 360.523 39.5156C359.539 38.7656 358.391 38.3906 357.078 38.3906C355.734 38.3906 354.562 38.7734 353.562 39.5391C352.562 40.2891 351.789 41.3516 351.242 42.7266C350.695 44.0859 350.422 45.6875 350.422 47.5312C350.422 49.375 350.688 50.9844 351.219 52.3594C351.766 53.7344 352.531 54.8047 353.516 55.5703C354.516 56.3359 355.688 56.7188 357.031 56.7188Z" fill="black"/>
<defs>
<clipPath id="clip0_8_97">
<rect width="64" height="60" fill="white" transform="translate(11 12)"/>
</clipPath>
</defs>
</svg>
