<svg width="25" height="24" viewBox="0 0 25 24" fill="none" xmlns="http://www.w3.org/2000/svg">
<path d="M19.2099 7.21001C19.117 7.11628 19.0064 7.04189 18.8845 6.99112C18.7627 6.94035 18.632 6.91422 18.4999 6.91422C18.3679 6.91422 18.2372 6.94035 18.1154 6.99112C17.9935 7.04189 17.8829 7.11628 17.79 7.21001L10.34 14.67L7.20995 11.53C7.11343 11.4368 6.99949 11.3635 6.87463 11.3143C6.74978 11.2651 6.61645 11.2409 6.48227 11.2432C6.34809 11.2456 6.21568 11.2743 6.0926 11.3278C5.96953 11.3813 5.85819 11.4585 5.76495 11.555C5.67171 11.6515 5.5984 11.7655 5.54919 11.8903C5.49999 12.0152 5.47586 12.1485 5.47818 12.2827C5.4805 12.4169 5.50923 12.5493 5.56272 12.6724C5.61622 12.7954 5.69343 12.9068 5.78995 13L9.62995 16.84C9.72291 16.9337 9.83351 17.0081 9.95537 17.0589C10.0772 17.1097 10.2079 17.1358 10.34 17.1358C10.472 17.1358 10.6027 17.1097 10.7245 17.0589C10.8464 17.0081 10.957 16.9337 11.05 16.84L19.2099 8.68001C19.3115 8.58637 19.3925 8.47272 19.4479 8.34622C19.5033 8.21972 19.5319 8.08312 19.5319 7.94501C19.5319 7.80691 19.5033 7.67031 19.4479 7.54381C19.3925 7.41731 19.3115 7.30366 19.2099 7.21001V7.21001Z" fill="#D90429"/>
</svg>
