<svg width="163" height="25" viewBox="0 0 163 25" fill="none" xmlns="http://www.w3.org/2000/svg">
<g clip-path="url(#clip0_0_42)">
<path fill-rule="evenodd" clip-rule="evenodd" d="M12.545 0.0234375L15.5064 9.1379H25.09L17.3367 14.7709L20.2983 23.8854L12.545 18.2524L4.79169 23.8854L7.7531 14.7709L0 9.1379H9.58356L12.545 0.0234375Z" fill="#FFCC00"/>
<path fill-rule="evenodd" clip-rule="evenodd" d="M47.0337 0.0234375L49.9952 9.1379H59.5787L51.8254 14.7709L54.787 23.8854L47.0337 18.2524L39.2805 23.8854L42.2419 14.7709L34.4888 9.1379H44.0723L47.0337 0.0234375Z" fill="#FFCC00"/>
<path fill-rule="evenodd" clip-rule="evenodd" d="M81.3635 0.0234375L84.3249 9.1379H93.9085L86.1552 14.7709L89.1168 23.8854L81.3635 18.2524L73.6102 23.8854L76.5716 14.7709L68.8185 9.1379H78.402L81.3635 0.0234375Z" fill="#FFCC00"/>
<path fill-rule="evenodd" clip-rule="evenodd" d="M115.69 0.0234375L118.652 9.1379H128.235L120.482 14.7709L123.444 23.8854L115.69 18.2524L107.937 23.8854L110.898 14.7709L103.145 9.1379H112.729L115.69 0.0234375Z" fill="#FFCC00"/>
<path fill-rule="evenodd" clip-rule="evenodd" d="M150.006 0.0234375L152.968 9.1379H162.551L154.798 14.7709L157.759 23.8854L150.006 18.2524L142.253 23.8854L145.214 14.7709L137.461 9.1379H147.045L150.006 0.0234375Z" fill="#FFCC00"/>
</g>
<defs>
<clipPath id="clip0_0_42">
<rect width="162.646" height="24" fill="white" transform="translate(0 0.0234375)"/>
</clipPath>
</defs>
</svg>
